<?xml version="1.0" ?>

<!-- Uploaded to: SVG Repo, www.svgrepo.com, Generator: SVG Repo Mixer Tools -->
<svg fill="#000000" width="800px" height="800px" viewBox="0 0 100 100" version="1.1" xml:space="preserve" xmlns="http://www.w3.org/2000/svg" xmlns:xlink="http://www.w3.org/1999/xlink">

<g id="store"/>

<g id="groceries"/>

<g id="fruits"/>

<g id="bakery"/>

<g id="hygiene_product"/>

<g id="detergent"/>

<g id="cooking_oil"/>

<g id="snacks"/>

<g id="canned_food"/>

<g id="wheat_flour"/>

<g id="milk_powder"/>

<g id="coffee_powder"/>

<g id="tea_bag"/>

<g id="meat"/>

<g id="chicken"/>

<g id="cart"/>

<g id="sausage"/>

<g id="egg"/>

<g id="drink"/>

<g id="vegetable">

<g>

<path d="M88,48h-4.5c1.6-6,2.9-11.4,3.2-13.3c0.9-5.4-1.8-10.6-6.2-13.2c1.1-0.3,2.2-0.8,3.3-1.5c3.4-2.5,4.2-7,4.2-7.2    c0-0.3,0-0.5-0.2-0.8c-0.2-0.2-0.4-0.4-0.7-0.4c-0.2,0-3.3-0.4-6.2,0.9c-0.2-3.3-2-5.9-2.1-6c-0.2-0.2-0.4-0.4-0.7-0.4    c-0.3,0-0.5,0-0.8,0.2c-0.1,0.1-2.6,2-3.8,5.1c-2.4-2.1-5.5-2.7-5.7-2.8c-0.3,0-0.5,0-0.8,0.2s-0.4,0.4-0.4,0.7    c0,0.2-0.6,4.7,1.8,8.1c0.8,1.1,1.7,1.9,2.6,2.5c-1.7,0.4-3.3,1.1-4.7,2.1c-1.8,1.3-3.2,3-4.1,5c-1.2-3.7-4-6.7-7.6-8.1    c1-0.5,2.1-1.1,3-2c3-3,3.1-7.6,3.1-7.8c0-0.3-0.1-0.5-0.3-0.7s-0.5-0.3-0.7-0.3c-0.2,0-3.3,0.1-6.1,1.8c-0.7-3.2-2.9-5.5-3-5.6    c-0.4-0.4-1.1-0.4-1.4,0c-0.1,0.1-2.3,2.4-3,5.6c-2.8-1.7-6-1.8-6.1-1.8c-0.3,0-0.5,0.1-0.7,0.3c-0.2,0.2-0.3,0.5-0.3,0.7    c0,0.2,0.1,4.8,3.1,7.8c0.9,0.9,2,1.6,3,2c-3.6,1.4-6.4,4.4-7.6,8.1c-0.9-2-2.3-3.7-4.1-5c-1.4-1-3-1.8-4.7-2.1    c0.9-0.6,1.9-1.4,2.6-2.5c2.4-3.4,1.9-7.9,1.8-8.1c0-0.3-0.2-0.5-0.4-0.7c-0.2-0.2-0.5-0.2-0.8-0.2c-0.2,0-3.2,0.6-5.7,2.8    c-1.2-3-3.7-5-3.8-5.1C22.4,6,22.1,6,21.8,6c-0.3,0-0.5,0.2-0.7,0.4c-0.1,0.1-1.9,2.8-2.1,6c-3-1.3-6.1-0.9-6.2-0.9    c-0.3,0-0.5,0.2-0.7,0.4C12,12.2,12,12.5,12,12.8c0,0.2,0.9,4.7,4.2,7.2c1,0.8,2.2,1.2,3.3,1.5c-4.4,2.6-7,7.8-6.2,13.2    c0.3,1.9,1.6,7.3,3.2,13.3H12c-0.6,0-1,0.4-1,1v6c0,0.6,0.4,1,1,1h1.1L17,86.3c0.7,5.5,5.4,9.7,11,9.7h44.2c5.5,0,10.3-4.2,11-9.7    L86.9,56H88c0.6,0,1-0.4,1-1v-6C89,48.4,88.6,48,88,48z M82.6,18.3c-1.4,1-3,1.4-4.3,1.5c1-1.2,2.1-2.9,2.5-5    c1.7-1,3.7-1.2,4.9-1.2C85.3,14.8,84.4,17,82.6,18.3z M77.7,8.6c0.6,1.2,1.4,3.4,1.1,5.6c-0.3,2.2-1.8,4-2.8,5    c-0.6-1.2-1.4-3.4-1.1-5.6C75.3,11.4,76.8,9.6,77.7,8.6z M70.2,16.3c-1.3-1.8-1.5-4.2-1.5-5.5c1.2,0.4,3,1.2,4.3,2.7    c-0.3,2.1,0.3,4.1,0.9,5.6C72.6,18.6,71.2,17.7,70.2,16.3z M67.7,23.7c2.3-1.7,5.2-2.4,8-1.9c5.9,1,9.9,6.6,9,12.6    c-0.3,1.6-1.5,6.8-3.3,13.6h-1.9c0.1-0.1,0.1-0.2,0.1-0.3c0.1-0.5-0.3-1.1-0.8-1.1l-5.8-0.9c-0.5-0.1-1.1,0.3-1.1,0.8    s0.3,1.1,0.8,1.1l2.7,0.4H62c0.4-8.1,0.9-15,1.2-17.1C63.7,28,65.3,25.4,67.7,23.7z M56.4,15.5c-1.2,1.2-2.8,1.9-4.1,2.2    c0.8-1.3,1.7-3.2,1.7-5.4c1.6-1.3,3.5-1.8,4.8-2C58.6,11.6,58,13.9,56.4,15.5z M50,6.6c0.8,1.1,2,3.1,2,5.4c0,2.3-1.2,4.3-2,5.4    c-0.8-1.1-2-3.1-2-5.4C48,9.7,49.2,7.7,50,6.6z M41.2,10.2c1.2,0.2,3.2,0.7,4.8,2c0.1,2.2,0.9,4.1,1.7,5.4c-1.3-0.3-2.9-1-4.1-2.2    C42,13.9,41.4,11.6,41.2,10.2z M50,20C50,20,50,20,50,20C50,20,50,20,50,20c6.1,0,11,4.9,11,11c0,2.1-0.5,8.9-1.4,17H40.4    C39.5,39.9,39,33.1,39,31C39,24.9,43.9,20,50,20z M31.3,10.8c0,1.4-0.2,3.7-1.5,5.5c-1,1.4-2.4,2.2-3.6,2.8    c0.6-1.5,1.1-3.5,0.9-5.6C28.3,12,30.2,11.2,31.3,10.8z M22.3,8.6c1,1,2.4,2.8,2.8,5c0.3,2.2-0.5,4.4-1.1,5.6c-1-1-2.4-2.8-2.8-5    C20.8,12,21.6,9.8,22.3,8.6z M14.3,13.5c1.2,0,3.2,0.2,4.9,1.2c0.4,2.1,1.5,3.9,2.5,5.1c-1.3-0.1-3-0.5-4.3-1.5    C15.6,17,14.7,14.8,14.3,13.5z M15.3,34.4c-0.9-6,3.1-11.6,9-12.6c2.8-0.5,5.7,0.2,8,1.9c2.4,1.7,3.9,4.3,4.4,7.2    c0.3,2.1,0.9,9,1.2,17.1H24.7l2.7-0.4c0.5-0.1,0.9-0.6,0.8-1.1s-0.6-0.9-1.1-0.8l-5.8,0.9c-0.5,0.1-0.9,0.6-0.8,1.1    c0,0.1,0.1,0.2,0.1,0.3h-1.9C16.8,41.2,15.6,36,15.3,34.4z M81.1,86.1c-0.6,4.5-4.4,7.9-9,7.9H27.9c-4.5,0-8.4-3.4-9-7.9L15.1,56    H40h20h24.9L81.1,86.1z M87,54h-1H60H40H14h-1v-4h74V54z"/>

<path d="M43,32h6c0.6,0,1-0.4,1-1s-0.4-1-1-1h-6c-0.6,0-1,0.4-1,1S42.4,32,43,32z"/>

<path d="M52,40h6c0.6,0,1-0.4,1-1s-0.4-1-1-1h-6c-0.6,0-1,0.4-1,1S51.4,40,52,40z"/>

<path d="M49,44h-6c-0.6,0-1,0.4-1,1s0.4,1,1,1h6c0.6,0,1-0.4,1-1S49.6,44,49,44z"/>

<path d="M26,32.6c-0.1-0.5-0.6-0.9-1.1-0.8l-5.8,0.9c-0.5,0.1-0.9,0.6-0.8,1.1c0.1,0.5,0.5,0.8,1,0.8c0.1,0,0.1,0,0.2,0l5.8-0.9    C25.8,33.7,26.1,33.2,26,32.6z"/>

<path d="M29.2,41.2c0.1,0,0.1,0,0.2,0l5.8-0.9c0.5-0.1,0.9-0.6,0.8-1.1s-0.6-0.9-1.1-0.8l-5.8,0.9c-0.5,0.1-0.9,0.6-0.8,1.1    C28.3,40.8,28.7,41.2,29.2,41.2z"/>

<path d="M74.8,33.8l5.8,0.9c0.1,0,0.1,0,0.2,0c0.5,0,0.9-0.3,1-0.8c0.1-0.5-0.3-1.1-0.8-1.1l-5.8-0.9c-0.5-0.1-1.1,0.3-1.1,0.8    C73.9,33.2,74.2,33.7,74.8,33.8z"/>

<path d="M64.8,40.2l5.8,0.9c0.1,0,0.1,0,0.2,0c0.5,0,0.9-0.3,1-0.8c0.1-0.5-0.3-1.1-0.8-1.1l-5.8-0.9c-0.5-0.1-1.1,0.3-1.1,0.8    C63.9,39.6,64.2,40.1,64.8,40.2z"/>

</g>

</g>

</svg>